<svg width="29" height="52" viewBox="0 0 29 52" fill="none" xmlns="http://www.w3.org/2000/svg">
<path d="M1.49951 1.48203L1.49935 1.48219C1.08632 1.89464 0.854417 2.44909 0.854417 3.02723C0.854417 3.60536 1.08632 4.15982 1.49935 4.57226L22.912 25.9978L1.49935 47.4233L1.49951 1.48203ZM1.49951 1.48203C1.70077 1.28168 1.94078 1.12272 2.20539 1.01426C2.47 0.905814 2.754 0.85 3.0408 0.85C3.3276 0.85 3.6116 0.905814 3.87621 1.01426C4.14082 1.12272 4.38084 1.28168 4.58209 1.48203L4.58235 1.48229M1.49951 1.48203L4.58235 1.48229M4.58235 1.48229L27.4791 24.3882L27.4791 24.3883M4.58235 1.48229L27.4791 24.3883M27.4791 24.3883C27.9088 24.8182 28.15 25.3957 28.15 25.9978C28.15 26.5998 27.9088 27.1773 27.4791 27.6073L27.3848 27.5131M27.4791 24.3883L27.3848 27.5131M27.3848 27.5131L27.4791 27.6073L4.58685 50.5132M27.3848 27.5131L4.58685 50.5132M4.58685 50.5132C4.38544 50.715 4.14483 50.8752 3.87934 50.9845C3.61385 51.0937 3.32874 51.15 3.0408 51.15C2.75286 51.15 2.46775 51.0937 2.20227 50.9845C1.93677 50.8752 1.69617 50.715 1.49476 50.5132M4.58685 50.5132L1.49924 47.4234C1.08687 47.8353 0.850002 48.3895 0.850002 48.9684C0.850002 49.5464 1.08184 50.1008 1.49476 50.5132M1.49476 50.5132C1.49482 50.5133 1.49487 50.5133 1.49493 50.5134L1.60092 50.4073L1.49476 50.5132Z" fill="#DDDDDD" stroke="#DDDDDD" stroke-width="0.3"/>
</svg>
