<svg width="7" height="12" viewBox="0 0 7 12" fill="none" xmlns="http://www.w3.org/2000/svg">
<path d="M0.529063 0.522761L0.529063 0.522762C0.415512 0.635018 0.350981 0.786818 0.350981 0.94599C0.350981 1.10514 0.415493 1.25692 0.529012 1.36917L0.528956 1.36911L0.634517 1.26255L0.529063 1.36922L0.529063 0.522761ZM0.529063 0.522761L0.529229 0.522598M0.529063 0.522761L0.529229 0.522598M0.529229 0.522598C0.585017 0.467617 0.651317 0.424215 0.724108 0.394679C0.796891 0.365147 0.874866 0.35 0.953511 0.35C1.03216 0.35 1.11013 0.365147 1.18291 0.394679C1.25571 0.424215 1.32201 0.467617 1.37779 0.522598L1.37806 0.522857M0.529229 0.522598L1.37806 0.522857M1.37806 0.522857L6.46623 5.56217L6.46624 5.56218M1.37806 0.522857L6.46624 5.56218M6.46624 5.56218C6.58345 5.67829 6.65 5.83513 6.65 5.99951C6.65 6.1639 6.58345 6.32074 6.46624 6.43685L6.46624 6.43685M6.46624 5.56218L6.46624 6.43685M6.46624 6.43685L1.37911 11.4761L6.46624 6.43685ZM0.529064 10.6298L5.20331 5.99951L1.27349 11.3696C1.23187 11.4109 1.18212 11.4437 1.12716 11.4661C1.07221 11.4885 1.01316 11.5 0.953512 11.5C0.893861 11.5 0.834815 11.4885 0.779859 11.4661C0.724903 11.4437 0.67515 11.4109 0.633538 11.3696L0.528082 11.4763C0.528025 11.4762 0.527969 11.4762 0.527912 11.4761C0.414466 11.3639 0.35 11.2121 0.35 11.053C0.35 10.893 0.416117 10.7415 0.529064 10.6298Z" fill="#0568C3" stroke="#0568C3" stroke-width="0.3"/>
</svg>
