<svg width="61" height="61" viewBox="0 0 61 61" fill="none" xmlns="http://www.w3.org/2000/svg">
<path d="M44.045 55.4815L44.065 55.76H44.3442H56.2514C56.7079 55.76 57.163 56.1633 57.335 56.7152C57.3127 57.1898 56.8999 57.5899 56.436 57.5899H56.43H56.4228H56.4144H56.4049H56.3942H56.3823H56.3693H56.3551H56.3397H56.3232H56.3056H56.2868H56.2669H56.2458H56.2237H56.2004H56.176H56.1505H56.1239H56.0961H56.0673H56.0374H56.0064H55.9743H55.9412H55.907H55.8717H55.8353H55.7979H55.7594H55.7199H55.6793H55.6377H55.5951H55.5514H55.5067H55.4609H55.4142H55.3664H55.3177H55.2679H55.2171H55.1654H55.1126H55.0589H55.0042H54.9485H54.8918H54.8342H54.7756H54.716H54.6555H54.5941H54.5317H54.4684H54.4041H54.3389H54.2728H54.2057H54.1378H54.0689H53.9991H53.9285H53.8569H53.7844H53.7111H53.6369H53.5618H53.4858H53.4089H53.3312H53.2526H53.1732H53.0929H53.0118H52.9298H52.847H52.7634H52.6789H52.5936H52.5075H52.4206H52.3329H52.2444H52.155H52.0649H51.974H51.8823H51.7898H51.6966H51.6025H51.5078H51.4122H51.3159H51.2188H51.121H51.0225H50.9232H50.8231H50.7224H50.6209H50.5187H50.4158H50.3121H50.2078H50.1028H49.997H49.8906H49.7835H49.6757H49.5672H49.4581H49.3483H49.2378H49.1266H49.0149H48.9024H48.7893H48.6756H48.5612H48.4462H48.3306H48.2143H48.0975H47.98H47.8619H47.7432H47.6239H47.504H47.3835H47.2624H47.1408H47.0186H46.8958H46.7724H46.6485H46.524H46.399H46.2734H46.1473H46.0206H45.8934H45.7657H45.6374H45.5087H45.3794H45.2496H45.1193H44.9885H44.8571H44.7253H44.5931H44.4603H44.327H44.1933H44.0591H43.9245H43.7894H43.6538H43.5178H43.3813H43.2444H43.107H42.9693H42.8311H42.6924H42.5534H42.4139H42.2741H42.1338H41.9931H41.852H41.7106H41.5687H41.4265H41.2839H41.1409H40.9976H40.8539H40.7098H40.5654H40.4207H40.2756H40.1301H39.9843H39.8382H39.6918H39.545H39.398H39.2506H39.1029H38.9549H38.8066H38.658H38.5092H38.36H38.2106H38.0609H37.9109H37.7607H37.6102H37.4594H37.3084H37.1572H37.0057H36.8539H36.702H36.5498H36.3974H36.2447H36.0919H35.9388H35.7856H35.6321H35.4785H35.3246H35.1706H35.0164H34.862H34.7074H34.5527H34.3978H34.2428H34.0876H33.9322H33.7767H33.6211H33.4653H33.3094H33.1534H32.9972H32.841H32.6846H32.5281H32.3716H32.2149H32.0581H31.9012H31.7443H31.5873H31.4302H31.273H31.1158H30.9585H30.8011H30.6437H30.4863H30.3288H30.1713H30.0137H29.8561H29.6985H29.5409H29.3833H29.2256H29.068H28.9103H28.7527H28.595H28.4374H28.2798H28.1222H27.9646H27.8071H27.6496H27.4922H27.3348H27.1774H27.0201H26.8629H26.7057H26.5487H26.3916H26.2347H26.0778H25.9211H25.7644H25.6078H25.4513H25.2949H25.1387H24.9825H24.8265H24.6706H24.5148H24.3592H24.2037H24.0484H23.8932H23.7381H23.5832H23.4285H23.2739H23.1196H22.9653H22.8113H22.6575H22.5038H22.3504H22.1971H22.044H21.8912H21.7386H21.5861H21.434H21.282H21.1303H20.9788H20.8275H20.6765H20.5258H20.3753H20.225H20.075H19.9253H19.7759H19.6268H19.4779H19.3293H19.181H19.033H18.8853H18.738H18.5909H18.4441H18.2977H18.1516H18.0058H17.8604H17.7153H17.5705H17.4261H17.282H17.1383H16.995H16.852H16.7094H16.5672H16.4253H16.2839H16.1428H16.0021H15.8619H15.722H15.5825H15.4435H15.3049H15.1667H15.0289H14.8915H14.7546H14.6182H14.4821H14.3466H14.2115H14.0768H13.9426H13.8089H13.6756H13.5429H13.4106H13.2788H13.1475H13.0167H12.8864H12.7566H12.6273H12.4985H12.3702H12.2425H12.1153H11.9887H11.8625H11.7369H11.6119H11.4874H11.3635H11.2401H11.1174H10.9951H10.8735H10.7524H10.6319H10.512H10.3928H10.2741H10.156H10.0385H9.92161H9.80536H9.68973H9.57473H9.46036H9.34662H9.23353H9.12108H9.00929H8.89815H8.78766H8.67785H8.5687H8.46022H8.35243H8.24532H8.13889H8.03316H7.92812H7.82379H7.72016H7.61724H7.51504H7.41356H7.3128H7.21277H7.11348H7.01492H6.91711H6.82005H6.72374H6.62818H6.53339H6.43937H6.34611H6.25364H6.16194H6.07103H5.98091H5.89158H5.80305H5.71533H5.62841H5.54231H5.45702H5.37256H5.28892H5.20612H5.12415H5.04302H4.96274H4.88331H4.80474H4.72702H4.65017H4.57418H4.49907H4.42484H4.35149H4.27903H4.20746H4.13679H4.06702H3.99815H3.9302H3.86316H3.79704H3.73184H3.66758H3.60424H3.54185H3.4804H3.4199H3.36035H3.30175H3.24412H3.18746H3.13177H3.07705H3.02331H2.97056H2.9188H2.86803H2.81826H2.76949H2.72173H2.67499H2.62926H2.58456H2.54088H2.49823H2.45662H2.41605H2.37652H2.33805H2.30063H2.26427H2.22897H2.19474H2.16159H2.12951H2.09852H2.06861H2.0398H2.01208H1.98546H1.95995H1.93555H1.91226H1.89009H1.86905H1.84914H1.83036H1.81272H1.79622H1.78087H1.76667H1.75363H1.74175H1.73104H1.72149H1.71313H1.70594H1.69994C1.22301 57.5899 0.8 57.167 0.8 56.6749C0.8 56.1829 1.223 55.76 1.69994 55.76H13.6071H13.8882L13.9065 55.4795L17.3217 3.04951L17.3425 2.73001H17.0223H8.80733H8.50733V3.03001V7.79638C8.50733 8.28842 8.08433 8.71132 7.60739 8.71132C7.13044 8.71132 6.7074 8.2884 6.7074 7.79638V1.81507C6.7074 1.32303 7.13045 0.900098 7.60739 0.900098H50.344C50.8209 0.900098 51.2439 1.32301 51.2439 1.81507V7.79638C51.2439 8.28842 50.8209 8.71132 50.344 8.71132C49.867 8.71132 49.444 8.28842 49.444 7.79638V3.03001V2.73001H49.144H40.929H40.6062L40.6298 3.0519C40.7102 4.15046 41.291 13.1484 41.9542 23.422C42.8237 36.8912 43.8347 52.5531 44.045 55.4815ZM37.715 19.9814L38.2925 19.459H37.5137H20.1607H19.382L19.9594 19.9814L28.636 27.8319L28.8372 28.0141L29.0385 27.8319L37.715 19.9814ZM20.4438 17.1813L19.7119 17.7225H20.6222H37.0522H37.9625L37.2306 17.1813L29.0156 11.1066L28.8372 10.9747L28.6589 11.1066L20.4438 17.1813ZM38.9906 40.3394H39.7764L39.1906 39.8157L28.9448 30.6569L28.744 30.4773L28.544 30.6578L18.3906 39.8166L17.811 40.3394H18.5915H38.9906ZM30.3893 28.9762L30.145 29.198L30.389 29.4201L40.4501 38.579L40.9989 39.0786L40.9515 38.338L39.8438 21.0482L39.804 20.4265L39.3428 20.8453L30.3893 28.9762ZM30.5965 9.61179L30.2734 9.85225L30.5963 10.093L38.9959 16.3547L39.5145 16.7412L39.4746 16.0957L38.7362 4.13304L38.7021 3.58015L38.2577 3.91084L30.5965 9.61179ZM28.6594 8.5987L28.8372 8.72969L29.0151 8.5987L36.1225 3.36505L36.8579 2.82348H35.9446H21.7298H20.8165L21.552 3.36505L28.6594 8.5987ZM27.0781 10.093L27.4011 9.85225L27.0779 9.61179L19.4167 3.91084L18.9723 3.58015L18.9382 4.13304L18.1998 16.0957L18.1599 16.7412L18.6785 16.3547L27.0781 10.093ZM18.3317 20.8453L17.8704 20.4265L17.8306 21.0482L16.7229 38.338L16.6755 39.0786L17.2243 38.579L27.2854 29.4201L27.5294 29.198L27.2851 28.9762L18.3317 20.8453ZM16.8004 42.8621L16.3846 42.6278L16.3538 43.1041L15.6153 54.506L15.5797 55.0566L16.0612 54.7872L26.5838 48.8993L27.05 48.6385L26.5846 48.3762L16.8004 42.8621ZM20.1607 42.0758H19.0005L20.0152 42.6382L28.7841 47.4981L28.9303 47.5791L29.0761 47.4974L37.7527 42.6376L38.7556 42.0758H37.6061H20.1607ZM41.413 43.1041L41.3821 42.6278L40.9663 42.8621L31.1821 48.3762L30.7167 48.6385L31.1829 48.8993L41.7055 54.7872L42.1871 55.0566L42.1514 54.506L41.413 43.1041ZM18.997 55.1992L18.0114 55.76H19.1454H38.5291H39.6631L38.6775 55.1992L28.9856 49.6852L28.8372 49.6008L28.6889 49.6852L18.997 55.1992Z" fill="#0568C3" stroke="white" stroke-width="0.6"/>
<path d="M9.82274 12.3557H5.02293C4.54601 12.3557 4.123 11.9328 4.123 11.4408C4.123 10.9487 4.546 10.5258 5.02293 10.5258H9.82274C10.2997 10.5258 10.7227 10.9487 10.7227 11.4408C10.7227 11.9328 10.2997 12.3557 9.82274 12.3557Z" fill="#0568C3" stroke="white" stroke-width="0.6"/>
<path d="M9.82274 15.9077H5.02293C4.546 15.9077 4.123 15.4849 4.123 14.9928C4.123 14.5007 4.54601 14.0778 5.02293 14.0778H9.82274C10.2997 14.0778 10.7227 14.5007 10.7227 14.9928C10.7227 15.4849 10.2997 15.9077 9.82274 15.9077Z" fill="#0568C3" stroke="white" stroke-width="0.6"/>
<path d="M9.82274 19.4585H5.02293C4.546 19.4585 4.123 19.0356 4.123 18.5436C4.123 18.0515 4.546 17.6286 5.02293 17.6286H9.82274C10.2997 17.6286 10.7227 18.0515 10.7227 18.5436C10.7227 19.0356 10.2997 19.4585 9.82274 19.4585Z" fill="#0568C3" stroke="white" stroke-width="0.6"/>
<path d="M47.8518 12.3557C47.3749 12.3557 46.9519 11.9328 46.9519 11.4408C46.9519 10.9487 47.3749 10.5258 47.8518 10.5258H52.6516C53.1285 10.5258 53.5515 10.9487 53.5515 11.4408C53.5515 11.9328 53.1285 12.3557 52.6516 12.3557H47.8518Z" fill="#0568C3" stroke="white" stroke-width="0.6"/>
<path d="M47.8518 14.0778H52.6516C53.1285 14.0778 53.5515 14.5007 53.5515 14.9928C53.5515 15.4849 53.1285 15.9077 52.6516 15.9077H47.8518C47.3749 15.9077 46.9519 15.4849 46.9519 14.9928C46.9519 14.5007 47.3749 14.0778 47.8518 14.0778Z" fill="#0568C3" stroke="white" stroke-width="0.6"/>
<path d="M52.6516 17.6286C53.1285 17.6286 53.5515 18.0515 53.5515 18.5436C53.5515 19.0356 53.1285 19.4585 52.6516 19.4585H47.8518C47.3749 19.4585 46.9519 19.0356 46.9519 18.5436C46.9519 18.0515 47.3749 17.6286 47.8518 17.6286H52.6516Z" fill="#0568C3" stroke="white" stroke-width="0.6"/>
<path d="M48.9594 36.0951C47.1902 36.0951 45.7519 34.6441 45.7519 32.8436C45.7519 31.0483 47.2775 29.5922 48.9594 29.5922C50.7286 29.5922 52.167 31.0432 52.167 32.8436C52.167 34.6441 50.7286 36.0951 48.9594 36.0951ZM49.0517 34.3586C49.867 34.3586 50.5517 33.66 50.5517 32.8436C50.5517 32.0428 49.9743 31.3287 49.0517 31.3287C48.2364 31.3287 47.5518 32.0273 47.5518 32.8436C47.5518 33.66 48.2364 34.3586 49.0517 34.3586Z" fill="#0568C3" stroke="white" stroke-width="0.6"/>
<path d="M9.43044 32.9515C9.43044 34.752 7.9921 36.203 6.22292 36.203C4.45373 36.203 3.01533 34.752 3.01533 32.9515C3.01533 31.1511 4.45372 29.7001 6.22292 29.7001C7.9921 29.7001 9.43044 31.1511 9.43044 32.9515ZM7.72285 32.9515C7.72285 32.1352 7.03823 31.4366 6.22292 31.4366C5.42302 31.4366 4.72292 32.0265 4.72292 32.9515C4.72292 33.7679 5.40761 34.4665 6.22292 34.4665C7.03824 34.4665 7.72285 33.7679 7.72285 32.9515Z" fill="#0568C3" stroke="white" stroke-width="0.6"/>
<path d="M7.05371 59.4001H27.822" stroke="#0568C3" stroke-width="1.5" stroke-linecap="round"/>
<path d="M42.5906 59.4001L60.1283 59.4001" stroke="#0568C3" stroke-width="1.5" stroke-linecap="round"/>
</svg>
