<svg width="60" height="60" viewBox="0 0 60 60" fill="none" xmlns="http://www.w3.org/2000/svg">
<path d="M40.0707 57.138H11.7668C11.5548 57.138 11.3428 56.926 11.3428 56.714V6.14863C11.3428 5.93662 11.5548 5.72461 11.7668 5.72461H40.0707C40.2827 5.72461 40.4947 5.93662 40.4947 6.14863V56.714C40.3887 56.926 40.2827 57.138 40.0707 57.138ZM12.1908 56.29H39.6466V6.57267H12.1908V56.29Z" fill="#0568C3"/>
<path d="M11.7668 57.1385H0.424022C0.212008 57.1385 0 56.9265 0 56.7145V18.9759C0 18.8699 0.10602 18.6579 0.212027 18.6579C0.318034 18.5519 0.530042 18.6579 0.636049 18.7639L11.9788 29.3646C12.0848 29.4707 12.0848 29.5767 12.0848 29.6827V56.7145C12.1908 56.9265 11.9788 57.1385 11.7668 57.1385ZM0.848076 56.2904H11.3428V29.7887L0.848076 19.93V56.2904Z" fill="#0568C3"/>
<path d="M56.0778 57.1385H47.3852C47.1732 57.1385 46.9612 56.9265 46.9612 56.7145V17.5979C46.9612 17.4919 47.0672 17.2799 47.1732 17.2799C47.2792 17.1739 47.4912 17.2799 47.5972 17.3859L56.2898 25.1244C56.5018 25.1244 56.5018 25.2304 56.5018 25.3364V56.7145C56.5018 56.9265 56.2898 57.1385 56.0778 57.1385ZM47.8092 56.2905H55.7598V25.5484L47.8092 18.552V56.2905Z" fill="#0568C3"/>
<path d="M47.3851 57.1378H39.9646C39.7526 57.1378 39.5406 56.9258 39.5406 56.7138V6.57244H33.1802C32.9681 6.57244 32.7561 6.36041 32.7561 6.1484V3.92226H24.3815C24.1695 3.92226 23.9575 3.71024 23.9575 3.49822V0.424022C23.9575 0.212008 24.1695 0 24.3815 0H47.3851C47.5971 0 47.8091 0.212008 47.8091 0.424022V56.7138C47.8091 56.9258 47.5971 57.1378 47.3851 57.1378ZM40.3886 56.2898H47.0671V0.742046H24.9116V2.96819H33.2861C33.4981 2.96819 33.7102 3.18021 33.7102 3.39222V5.61836H40.0706C40.2826 5.61836 40.4946 5.83039 40.4946 6.0424L40.3886 56.2898Z" fill="#0568C3"/>
<path d="M15.583 57.138C15.3709 57.138 15.1589 56.926 15.1589 56.714V13.9931C15.1589 13.7811 15.3709 13.5691 15.583 13.5691C15.795 13.5691 16.007 13.7811 16.007 13.9931V56.714C16.007 56.926 15.795 57.138 15.583 57.138Z" fill="#0568C3"/>
<path d="M19.7172 57.138C19.5052 57.138 19.2932 56.926 19.2932 56.714V13.9931C19.2932 13.7811 19.5052 13.5691 19.7172 13.5691C19.9292 13.5691 20.1413 13.7811 20.1413 13.9931V56.714C20.1413 56.926 19.9292 57.138 19.7172 57.138Z" fill="#0568C3"/>
<path d="M23.9575 57.138C23.7455 57.138 23.5334 56.926 23.5334 56.714V13.9931C23.5334 13.7811 23.7455 13.5691 23.9575 13.5691C24.1695 13.5691 24.3815 13.7811 24.3815 13.9931V56.714C24.3815 56.926 24.1695 57.138 23.9575 57.138Z" fill="#0568C3"/>
<path d="M28.0917 57.138C27.8797 57.138 27.6677 56.926 27.6677 56.714V13.9931C27.6677 13.7811 27.8797 13.5691 28.0917 13.5691C28.3038 13.5691 28.5158 13.7811 28.5158 13.9931V56.714C28.4098 56.926 28.3038 57.138 28.0917 57.138Z" fill="#0568C3"/>
<path d="M32.2263 57.138C32.0143 57.138 31.8022 56.926 31.8022 56.714V13.9931C31.8022 13.7811 32.0143 13.5691 32.2263 13.5691C32.4383 13.5691 32.6503 13.7811 32.6503 13.9931V56.714C32.5443 56.926 32.4383 57.138 32.2263 57.138Z" fill="#0568C3"/>
<path d="M36.4663 57.138C36.2542 57.138 36.0422 56.926 36.0422 56.714V13.9931C36.0422 13.7811 36.2542 13.5691 36.4663 13.5691C36.6783 13.5691 36.8903 13.7811 36.8903 13.9931V56.714C36.7843 56.926 36.6783 57.138 36.4663 57.138Z" fill="#0568C3"/>
<path d="M4.66426 30.7429C4.45224 30.7429 4.24023 30.5309 4.24023 30.3189V27.0327C4.24023 26.8207 4.45224 26.6086 4.66426 26.6086C4.87627 26.6086 5.08831 26.8207 5.08831 27.0327V30.3189C5.08831 30.5309 4.87627 30.7429 4.66426 30.7429Z" fill="#0568C3"/>
<path d="M4.66426 38.4807C4.45224 38.4807 4.24023 38.2687 4.24023 38.0567V34.7705C4.24023 34.5584 4.45224 34.3464 4.66426 34.3464C4.87627 34.3464 5.08831 34.5584 5.08831 34.7705V38.0567C5.08831 38.2687 4.87627 38.4807 4.66426 38.4807Z" fill="#0568C3"/>
<path d="M4.66426 46.2186C4.45224 46.2186 4.24023 46.0066 4.24023 45.7946V42.5084C4.24023 42.2964 4.45224 42.0844 4.66426 42.0844C4.87627 42.0844 5.08831 42.2964 5.08831 42.5084V45.7946C5.08831 46.0066 4.87627 46.2186 4.66426 46.2186Z" fill="#0568C3"/>
<path d="M4.66426 53.8511C4.45224 53.8511 4.24023 53.6391 4.24023 53.427V50.1408C4.24023 49.9288 4.45224 49.7168 4.66426 49.7168C4.87627 49.7168 5.08831 49.9288 5.08831 50.1408V53.427C5.08831 53.7451 4.87627 53.8511 4.66426 53.8511Z" fill="#0568C3"/>
<path d="M8.16255 38.4807C7.95053 38.4807 7.73853 38.2687 7.73853 38.0567V34.7705C7.73853 34.5584 7.95053 34.3464 8.16255 34.3464C8.37456 34.3464 8.58657 34.5584 8.58657 34.7705V38.0567C8.58657 38.2687 8.37456 38.4807 8.16255 38.4807Z" fill="#0568C3"/>
<path d="M8.16255 46.2186C7.95053 46.2186 7.73853 46.0066 7.73853 45.7946V42.5084C7.73853 42.2964 7.95053 42.0844 8.16255 42.0844C8.37456 42.0844 8.58657 42.2964 8.58657 42.5084V45.7946C8.58657 46.0066 8.37456 46.2186 8.16255 46.2186Z" fill="#0568C3"/>
<path d="M8.16255 53.8511C7.95053 53.8511 7.73853 53.6391 7.73853 53.427V50.1408C7.73853 49.9288 7.95053 49.7168 8.16255 49.7168C8.37456 49.7168 8.58657 49.9288 8.58657 50.1408V53.427C8.58657 53.7451 8.37456 53.8511 8.16255 53.8511Z" fill="#0568C3"/>
<path d="M50.2473 29.3648C50.0352 29.3648 49.8232 29.1527 49.8232 28.9407V25.6545C49.8232 25.4425 50.0352 25.2305 50.2473 25.2305C50.4593 25.2305 50.6713 25.4425 50.6713 25.6545V28.9407C50.6713 29.2587 50.4593 29.3648 50.2473 29.3648Z" fill="#0568C3"/>
<path d="M53.3215 29.3648C53.1095 29.3648 52.8975 29.1527 52.8975 28.9407V25.6545C52.8975 25.4425 53.1095 25.2305 53.3215 25.2305C53.5335 25.2305 53.7455 25.4425 53.7455 25.6545V28.9407C53.7455 29.2587 53.5335 29.3648 53.3215 29.3648Z" fill="#0568C3"/>
<path d="M50.2473 36.2542C50.0352 36.2542 49.8232 36.0421 49.8232 35.8301V32.5439C49.8232 32.3319 50.0352 32.1199 50.2473 32.1199C50.4593 32.1199 50.6713 32.3319 50.6713 32.5439V35.9361C50.6713 36.1481 50.4593 36.2542 50.2473 36.2542Z" fill="#0568C3"/>
<path d="M53.3215 36.2542C53.1095 36.2542 52.8975 36.0421 52.8975 35.8301V32.5439C52.8975 32.3319 53.1095 32.1199 53.3215 32.1199C53.5335 32.1199 53.7455 32.3319 53.7455 32.5439V35.9361C53.7455 36.1481 53.5335 36.2542 53.3215 36.2542Z" fill="#0568C3"/>
<path d="M50.2473 43.0382C50.0352 43.0382 49.8232 42.8262 49.8232 42.6142V39.328C49.8232 39.1159 50.0352 38.9039 50.2473 38.9039C50.4593 38.9039 50.6713 39.1159 50.6713 39.328V42.6142C50.6713 42.9322 50.4593 43.0382 50.2473 43.0382Z" fill="#0568C3"/>
<path d="M53.3215 43.0382C53.1095 43.0382 52.8975 42.8262 52.8975 42.6142V39.328C52.8975 39.1159 53.1095 38.9039 53.3215 38.9039C53.5335 38.9039 53.7455 39.1159 53.7455 39.328V42.6142C53.7455 42.9322 53.5335 43.0382 53.3215 43.0382Z" fill="#0568C3"/>
<path d="M50.2473 49.9288C50.0352 49.9288 49.8232 49.7168 49.8232 49.5048V46.2186C49.8232 46.0066 50.0352 45.7946 50.2473 45.7946C50.4593 45.7946 50.6713 46.0066 50.6713 46.2186V49.5048C50.6713 49.8228 50.4593 49.9288 50.2473 49.9288Z" fill="#0568C3"/>
<path d="M53.3215 49.9288C53.1095 49.9288 52.8975 49.7168 52.8975 49.5048V46.2186C52.8975 46.0066 53.1095 45.7946 53.3215 45.7946C53.5335 45.7946 53.7455 46.0066 53.7455 46.2186V49.5048C53.7455 49.8228 53.5335 49.9288 53.3215 49.9288Z" fill="#0568C3"/>
<path d="M50.2473 56.714C50.0352 56.714 49.8232 56.502 49.8232 56.29V53.0037C49.8232 52.7917 50.0352 52.5797 50.2473 52.5797C50.4593 52.5797 50.6713 52.7917 50.6713 53.0037V56.29C50.6713 56.608 50.4593 56.714 50.2473 56.714Z" fill="#0568C3"/>
<path d="M53.3215 56.714C53.1095 56.714 52.8975 56.502 52.8975 56.29V53.0037C52.8975 52.7917 53.1095 52.5797 53.3215 52.5797C53.5335 52.5797 53.7455 52.7917 53.7455 53.0037V56.29C53.7455 56.608 53.5335 56.714 53.3215 56.714Z" fill="#0568C3"/>
<path d="M33.1803 6.67864H18.4453C18.2332 6.67864 18.0212 6.46663 18.0212 6.25462V3.60444C18.0212 3.39243 18.2332 3.18042 18.4453 3.18042H33.1803C33.3923 3.18042 33.6043 3.39243 33.6043 3.60444V6.25462C33.6043 6.46663 33.3923 6.67864 33.1803 6.67864ZM18.8693 5.72458H32.7562V3.81645H18.8693V5.72458Z" fill="#0568C3"/>
<path d="M37.4203 59.9997H4.7744C4.56238 59.9997 4.35034 59.7877 4.35034 59.5756C4.35034 59.3636 4.56238 59.1516 4.7744 59.1516H37.4203C37.6324 59.1516 37.8444 59.3636 37.8444 59.5756C37.8444 59.7877 37.6324 59.9997 37.4203 59.9997Z" fill="#0568C3"/>
<path d="M59.1054 59.9997H46.4057C46.1937 59.9997 45.9817 59.7877 45.9817 59.5756C45.9817 59.3636 46.1937 59.1516 46.4057 59.1516H59.1054C59.3174 59.1516 59.5294 59.3636 59.5294 59.5756C59.5294 59.7877 59.3174 59.9997 59.1054 59.9997Z" fill="#0568C3"/>
</svg>
