<svg width="61" height="62" viewBox="0 0 61 62" fill="none" xmlns="http://www.w3.org/2000/svg">
<path d="M52.967 58.8454H8.66433C8.45387 58.8454 8.24341 58.6349 8.24341 58.4245V31.8008C8.24341 31.5903 8.45387 31.3799 8.66433 31.3799H53.0722C53.2827 31.3799 53.4931 31.5903 53.4931 31.8008V58.4245C53.4931 58.6349 53.2827 58.8454 52.967 58.8454ZM9.08525 57.8983H52.546V32.327H9.08525V57.8983Z" fill="#0568C3"/>
<path d="M19.398 58.8451H8.66433C8.45387 58.8451 8.24341 58.6347 8.24341 58.4242V18.2256C8.24341 18.0152 8.45387 17.8047 8.66433 17.8047H19.398C19.6085 17.8047 19.8189 18.0152 19.8189 18.2256V58.4242C19.8189 58.6347 19.6085 58.8451 19.398 58.8451ZM9.08525 57.898H18.8718V18.7518H9.08525V57.898Z" fill="#0568C3"/>
<path d="M19.398 18.7515H8.66433C8.45387 18.7515 8.24341 18.541 8.24341 18.3305V15.4893C8.24341 15.2788 8.45387 15.0684 8.66433 15.0684H19.398C19.6085 15.0684 19.8189 15.2788 19.8189 15.4893V18.3305C19.8189 18.541 19.6085 18.7515 19.398 18.7515ZM9.08525 17.8044H18.8718V15.9102H9.08525V17.8044Z" fill="#0568C3"/>
<path d="M16.8725 15.9099H11.19C10.9795 15.9099 10.769 15.6995 10.769 15.489V12.753C10.769 12.5425 10.9795 12.332 11.19 12.332H16.8725C17.083 12.332 17.2934 12.5425 17.2934 12.753V15.489C17.2934 15.6995 17.083 15.9099 16.8725 15.9099ZM11.7161 14.9628H16.4516V13.1739H11.7161V14.9628Z" fill="#0568C3"/>
<path d="M52.967 58.8451H8.66433C8.45387 58.8451 8.24341 58.6347 8.24341 58.4242V53.5835C8.24341 53.3731 8.45387 53.1626 8.66433 53.1626H30.8683H53.0722C53.2827 53.1626 53.4931 53.3731 53.4931 53.5835V58.4242C53.4931 58.6347 53.2827 58.8451 52.967 58.8451ZM9.08525 57.898H52.546V54.0045H30.8156H9.08525V57.898Z" fill="#0568C3"/>
<path d="M25.3963 51.8992H21.5027C21.2922 51.8992 21.0818 51.6888 21.0818 51.4783V37.1668C21.0818 36.9563 21.2922 36.7458 21.5027 36.7458H25.3963C25.6067 36.7458 25.8172 36.9563 25.8172 37.1668V51.4783C25.9225 51.6888 25.712 51.8992 25.3963 51.8992ZM21.9236 50.9522H24.8701V37.5877H21.9236V50.9522Z" fill="#0568C3"/>
<path d="M31.9205 51.8992H28.0269C27.8164 51.8992 27.606 51.6888 27.606 51.4783V37.1668C27.606 36.9563 27.8164 36.7458 28.0269 36.7458H31.9205C32.1309 36.7458 32.3414 36.9563 32.3414 37.1668V51.4783C32.3414 51.6888 32.1309 51.8992 31.9205 51.8992ZM28.3426 50.9522H31.2891V37.5877H28.3426V50.9522Z" fill="#0568C3"/>
<path d="M38.2347 51.8992H34.2359C34.0254 51.8992 33.8149 51.6888 33.8149 51.4783V37.1668C33.8149 36.9563 34.0254 36.7458 34.2359 36.7458H38.2347C38.4452 36.7458 38.6556 36.9563 38.6556 37.1668V51.4783C38.7608 51.6888 38.5504 51.8992 38.2347 51.8992ZM34.7621 50.9522H37.8138V37.5877H34.7621V50.9522Z" fill="#0568C3"/>
<path d="M44.7591 51.8992H40.7603C40.5498 51.8992 40.3394 51.6888 40.3394 51.4783V37.1668C40.3394 36.9563 40.5498 36.7458 40.7603 36.7458H44.7591C44.9696 36.7458 45.18 36.9563 45.18 37.1668V51.4783C45.18 51.6888 44.9696 51.8992 44.7591 51.8992ZM41.2864 50.9522H44.3382V37.5877H41.2864V50.9522Z" fill="#0568C3"/>
<path d="M51.178 51.8992H47.1792C46.9688 51.8992 46.7583 51.6888 46.7583 51.4783V37.1668C46.7583 36.9563 46.9688 36.7458 47.1792 36.7458H51.0728C51.2833 36.7458 51.4937 36.9563 51.4937 37.1668V51.4783C51.7042 51.6888 51.4937 51.8992 51.178 51.8992ZM47.6001 50.9522H50.6519V37.5877H47.6001V50.9522Z" fill="#0568C3"/>
<path d="M14.4523 11.8062C13.1895 11.8062 12.1372 10.7539 12.1372 9.49107C12.1372 8.22829 13.1895 7.17598 14.4523 7.17598C14.5575 7.17598 14.6628 7.17598 14.6628 7.17598C14.6628 7.17598 14.6628 7.17597 14.6628 7.07074C14.6628 5.70272 15.9255 3.91378 17.504 3.91378C17.6092 3.91378 17.7145 3.91378 17.7145 3.91378C17.7145 3.91378 17.7145 3.91379 17.7145 3.80856C17.7145 2.23008 18.9773 0.967285 20.5558 0.967285C21.8185 0.967285 22.9761 1.80915 23.2918 2.9667C23.5022 2.9667 23.7127 2.9667 23.9232 2.9667C24.2389 2.01961 25.0807 1.38822 26.133 1.38822C27.3958 1.38822 28.4482 2.44054 28.4482 3.70332C28.4482 4.9661 27.3958 6.01842 26.133 6.01842C26.0278 6.01842 25.9226 6.01842 25.8174 6.01842C25.7121 6.33411 25.6069 6.54458 25.3964 6.75504V6.86028C25.3964 8.12306 24.3441 9.17538 23.0813 9.17538C22.9761 9.17538 22.8708 9.17538 22.7656 9.17538C22.4499 10.1225 21.6081 10.7539 20.5558 10.7539C19.8191 10.7539 19.0825 10.3329 18.6616 9.70154C18.0302 10.0172 17.2936 10.0172 16.6622 9.80677C16.4517 11.0696 15.5046 11.8062 14.4523 11.8062ZM14.4523 8.2283C13.7157 8.2283 13.0843 8.85969 13.0843 9.59631C13.0843 10.3329 13.7157 10.9643 14.4523 10.9643C15.1889 10.9643 15.8203 10.3329 15.8203 9.59631C15.8203 9.49108 15.8203 9.49107 15.8203 9.38584C15.8203 9.17537 15.8203 8.96491 16.0308 8.85968C16.2412 8.75445 16.4517 8.75445 16.5569 8.85968C16.8726 9.07014 17.2936 9.17538 17.6092 9.17538C18.0302 9.17538 18.3459 9.07014 18.6616 8.85968C18.7668 8.75445 18.9773 8.75445 19.0825 8.75445C19.1877 8.75445 19.293 8.85969 19.3982 9.07015C19.6087 9.59631 20.1348 9.912 20.661 9.912C21.3976 9.912 21.9238 9.38584 22.029 8.64922C22.029 8.54398 22.1342 8.33353 22.2394 8.2283C22.3447 8.12306 22.5552 8.12306 22.6604 8.2283C22.7656 8.33353 22.9761 8.33352 23.1866 8.33352C23.9232 8.33352 24.5546 7.70214 24.5546 6.96552C24.5546 6.86028 24.5546 6.86027 24.5546 6.75504C24.5546 6.54458 24.5546 6.43935 24.6598 6.33412C24.8703 6.12365 25.0807 5.80797 25.0807 5.38704C25.0807 5.28181 25.186 5.07133 25.2912 4.9661C25.3964 4.86087 25.6069 4.86087 25.7121 4.9661C25.8173 5.07133 26.0278 5.07134 26.2383 5.07134C26.9749 5.07134 27.6063 4.43994 27.6063 3.70332C27.6063 2.9667 26.9749 2.3353 26.2383 2.3353C25.5017 2.3353 24.9755 2.86146 24.8702 3.59808C24.8702 3.70331 24.765 3.91379 24.6598 4.01902C24.5546 4.12425 24.3441 4.12425 24.2389 4.01902C24.0284 3.91379 23.8179 3.91378 23.7127 3.91378C23.6075 3.91378 23.397 3.91379 23.1866 4.01902C23.0813 4.01902 22.8708 4.01902 22.7656 4.01902C22.6604 3.91379 22.5552 3.80855 22.5552 3.70332C22.4499 2.75623 21.6081 2.0196 20.661 2.0196C19.6086 2.0196 18.7668 2.86146 18.7668 3.91378C18.7668 4.12425 18.7668 4.33472 18.872 4.54518C18.9773 4.75564 18.872 4.96611 18.7668 5.07134C18.6616 5.17657 18.4511 5.17656 18.2406 5.17656C18.0302 5.07133 17.8197 5.07134 17.6092 5.07134C16.6622 5.07134 15.7151 6.33411 15.7151 7.2812C15.7151 7.49166 15.7151 7.70213 15.8203 7.80736C15.9256 8.01782 15.8203 8.22829 15.7151 8.33352C15.6099 8.43875 15.3994 8.43876 15.1889 8.43876C14.8732 8.33352 14.6628 8.2283 14.4523 8.2283Z" fill="#0568C3"/>
<path d="M44.8645 32.3264H24.0286C23.8181 32.3264 23.6077 32.1159 23.6077 31.9055V25.4863C23.6077 25.2758 23.7129 25.0654 23.9233 25.0654L31.8157 22.7503V20.2247C31.8157 20.0143 31.921 19.8038 32.1315 19.8038L44.654 15.0684C44.7593 15.0684 44.9697 15.0683 45.075 15.1736C45.1802 15.2788 45.2854 15.3841 45.2854 15.5945V31.9055C45.2854 32.1159 45.075 32.3264 44.8645 32.3264ZM24.5547 31.3793H44.3383V16.2259L32.6576 20.33V22.8555C32.6576 23.066 32.5524 23.2764 32.3419 23.2764L24.4495 25.5915V31.3793H24.5547Z" fill="#0568C3"/>
<path d="M7.47656 60.9673H19.7477" stroke="#0568C3" stroke-width="1.5" stroke-linecap="round"/>
<path d="M26.6501 60.9673L48.8915 60.9673" stroke="#0568C3" stroke-width="1.5" stroke-linecap="round"/>
</svg>
